<svg xmlns="http://www.w3.org/2000/svg" version="1.1" xmlns:xlink="http://www.w3.org/1999/xlink" xmlns:svgjs="http://svgjs.dev/svgjs" width="1000" height="623" viewBox="0 0 1000 623"><g transform="matrix(1,0,0,1,-0.6060606060606233,3.79933583949844)"><svg viewBox="0 0 396 247" data-background-color="#ffffff" preserveAspectRatio="xMidYMid meet" height="623" width="1000" xmlns="http://www.w3.org/2000/svg" xmlns:xlink="http://www.w3.org/1999/xlink"><defs></defs><g id="tight-bounds" transform="matrix(1,0,0,1,0.2400000000000091,-0.09999999999999432)"><svg viewBox="0 0 395.52 247.2" height="247.2" width="395.52"><g><svg></svg></g><g><svg viewBox="0 0 395.52 247.2" height="247.2" width="395.52"><g transform="matrix(1,0,0,1,121.37519999999999,47.215199999999996)"><svg viewBox="0 0 152.7696 152.7696" height="152.7696" width="152.7696"><g><svg viewBox="0 0 152.7696 152.7696" height="152.7696" width="152.7696"><g><svg viewBox="0 0 152.7696 152.7696" height="152.7696" width="152.7696"><g><svg viewBox="0 0 152.7696 152.7696" height="152.7696" width="152.7696"><g><svg viewBox="0 0 152.7696 152.7696" height="152.7696" width="152.7696"><g transform="matrix(1,0,0,1,40.32302177700731,42.625206667219125)"><svg viewBox="0 0 72.12355644598537 67.51918666556175" height="67.51918666556175" width="72.12355644598537"><g><svg version="1.0" xmlns="http://www.w3.org/2000/svg" xmlns:xlink="http://www.w3.org/1999/xlink" x="0" y="0" viewBox="0 0 100 93.61599731445312" enable-background="new 0 0 100 93.615" xml:space="preserve" width="72.12355644598537" height="67.51918666556175" class="icon-o-0" data-fill-palette-color="accent" id="o-0"><path d="M99.866 23.353C98.533 10.235 87.456 0 73.988 0 63.193 0 53.938 6.575 50 15.937 46.062 6.575 36.807 0 26.013 0 12.544 0 1.466 10.235 0.134 23.353 0.045 24.227 0 25.115 0 26.013c0 31.606 38.788 46.523 50 67.603h0c11.212-21.079 50-35.996 50-67.603C100 25.115 99.955 24.227 99.866 23.353z" fill="#4b91f1" data-fill-palette-color="accent"></path></svg></g></svg></g><path d="M1.702 78.064c0-3.545 2.873-6.418 6.418-6.419 3.545 0 6.418 2.873 6.418 6.419 0 3.545-2.873 6.418-6.418 6.418-3.545 0-6.418-2.873-6.418-6.418zM138.232 78.064c0-3.545 2.873-6.418 6.418-6.419 3.545 0 6.418 2.873 6.418 6.419 0 3.545-2.873 6.418-6.418 6.418-3.545 0-6.418-2.873-6.418-6.418z" fill="#77d4fc" data-fill-palette-color="primary"></path><path d="M2.68 53.432l9.968 2.958 4.629 1.182-0.674 2.389-4.344-1.39-10.259-2.73zM13.601 32.295l13.863 6.334-1.087 1.883-4.144-2.035-6.288-2.813-0.084 0.147 6.523 8.267-0.968 1.677-10.278-1.756-0.104 0.181 5.397 3.938 3.983 2.733-1.027 1.781-12.349-8.957 1.389-2.409 2.327 0.517 8.424 1.512 0.095-0.163-5.498-6.725-1.558-1.712zM25.545 19.509l13.876 7.849-1.848 1.702-1.406-1.014-1.915-1.099-2.414 2.127-2.087 2.015 0.819 1.945 0.953 1.593-1.79 1.647-6.292-14.829zM30.698 27.586l1.756-1.683-6.333-3.672-0.117 0.108 2.907 6.825zM46.737 5.801l4.954 9.457 2.223 3.957-2.305 1.248-11.685-6.6-0.148 0.081 2.977 5.536 2.483 4.437-1.956 1.059-2.033-4.003-5.177-9.347 2.27-1.23 11.711 6.586 0.166-0.089-5.404-9.869zM58.305 2.2l2.715 10.036 1.423 4.561-2.387 0.68-1.096-4.426-3.062-10.166zM109.953 8.02l-4.76 9.243-2.058 4.311-2.176-1.089 2.147-4.022 4.645-9.546zM117.491 11.793l-8.416 3.771c0.534 3.014 1.281 6.189 2.238 9.526v0l-0.151 0.236c-0.702-0.137-1.464-0.351-2.287-0.645v0l-0.213-0.262c-0.833-3.689-1.459-6.979-1.878-9.869v0l0.075-0.151 6.787-2.998 1.457-0.803zM128.094 20.074c1.575 1.377 2.363 2.924 2.365 4.642 0.003 1.726-0.782 3.489-2.356 5.287v0c-1.7 1.943-3.472 3.045-5.317 3.304-1.84 0.264-3.602-0.341-5.287-1.814v0c-1.565-1.368-2.332-2.924-2.303-4.666 0.029-1.742 0.847-3.533 2.455-5.372v0c1.669-1.908 3.408-2.982 5.218-3.22 1.809-0.238 3.551 0.375 5.225 1.839zM126.637 21.439c-1.076-0.941-2.181-1.297-3.316-1.067-1.138 0.236-2.339 1.076-3.603 2.521v0c-1.377 1.575-2.127 2.955-2.25 4.141-0.123 1.176 0.356 2.237 1.438 3.183v0c1.091 0.954 2.201 1.31 3.329 1.065 1.138-0.245 2.354-1.107 3.648-2.587v0c1.36-1.555 2.097-2.915 2.211-4.082 0.109-1.171-0.377-2.229-1.457-3.174zM136.32 41.164c0.413 0.994 0.516 1.872 0.31 2.633-0.208 0.771-0.721 1.438-1.538 2.003v0c-2.386 1.647-4.811 0.686-7.274-2.883v0c-0.85-1.231-1.52-2.261-2.01-3.089v0l-0.012-0.016 3.842-2.458 8.646-6.16 2.701 3.879c0.831 1.204 1.214 2.319 1.15 3.345-0.066 1.035-0.598 1.896-1.595 2.584v0c-0.697 0.481-1.41 0.731-2.136 0.751-0.723 0.024-1.418-0.172-2.084-0.589zM138.89 39.101c0.621-0.429 0.946-0.914 0.974-1.457 0.032-0.537-0.238-1.219-0.81-2.047v0l-0.913-1.324-3.873 2.588 1.325 2.042c0.536 0.474 1.07 0.729 1.601 0.765 0.531 0.036 1.097-0.153 1.696-0.567zM129.61 42.175c0.662 0.959 1.351 1.573 2.068 1.842 0.722 0.266 1.435 0.156 2.138-0.329v0c1.111-0.767 1.269-1.937 0.472-3.511v0l-1.584-2.261-1.651 1.104-2.355 1.71c0.312 0.533 0.616 1.015 0.912 1.445zM137.235 57.116l1.423 3.378-0.145 0.205-1.798 0.525-3.229-8.355 4.309-1.494 9.844-3.975 3.243 8.392-0.15 0.218-1.81 0.497-1.203-3.389-1.065-2.675-4.151 1.518 0.951 2.571 0.97 2.318-0.118 0.216-1.81 0.497-0.897-2.516-0.974-2.381-1.832 0.686-2.577 1.071zM21.582 97.845l-11.123 2.997-5.046 1.569-0.749-2.636 4.91-1.21 11.251-3.385zM31.12 114.912l-13.731 9.811-1.207-2.078 4.244-2.855 6.167-4.488-0.095-0.163-11.537 1.704-1.077-1.855 7.359-8.9-0.12-0.206-6.748 3.011-4.829 2.322-1.142-1.966 15.407-6.925 1.551 2.67-1.779 1.94-6.105 7.265 0.11 0.189 9.494-1.586 2.498-0.543zM39.389 122.729l-7.228 16.107-2.057-1.856 0.969-1.667 1.011-2.217-2.587-2.441-2.442-2.096-2.052 1.104-1.668 1.211-1.998-1.802 15.708-8.458zM31.013 129.242l2.046 1.764 3.396-7.367-0.133-0.12-7.23 3.909zM57.467 133.675l-5.661 10.385-2.275 4.48-2.573-1.358-1.112-14.825-0.159-0.083-3.275 6.142-2.558 5.016-2.178-1.15 2.436-4.339 5.433-10.505 2.521 1.331 1.138 14.838 0.185 0.097 5.773-11.043zM64.481 135.374l-3.213 11.062-1.278 5.128-2.643-0.728 1.515-4.826 2.948-11.372zM100.333 131.03l4.892 10.429 2.395 4.71-2.432 1.174-2.082-4.607-5.223-10.523zM108.747 126.968l-2.384 9.928c3.007 1.569 6.297 3.061 9.868 4.476v0l0.112 0.299c-0.602 0.519-1.308 1.043-2.119 1.574v0l-0.373 0.004c-3.801-1.767-7.11-3.444-9.927-5.032v0l-0.078-0.161 1.958-7.98 0.279-1.822zM114.483 121.437c1.768-1.507 3.595-2.125 5.48-1.852 1.88 0.277 3.681 1.425 5.402 3.445v0c1.855 2.176 2.781 4.293 2.777 6.349-0.009 2.061-0.958 3.896-2.848 5.507v0c-1.753 1.494-3.582 2.084-5.487 1.767-1.905-0.316-3.733-1.502-5.485-3.557v0c-1.825-2.141-2.723-4.22-2.694-6.237 0.034-2.021 0.986-3.828 2.855-5.422zM115.748 123.243c-1.204 1.026-1.773 2.181-1.706 3.463 0.076 1.283 0.804 2.734 2.182 4.351v0c1.507 1.768 2.898 2.814 4.174 3.136 1.27 0.327 2.51-0.025 3.718-1.056v0c1.224-1.044 1.794-2.207 1.708-3.492-0.086-1.275-0.838-2.743-2.255-4.406v0c-1.482-1.738-2.851-2.763-4.108-3.074-1.266-0.312-2.504 0.047-3.713 1.078zM132.707 112.887c0.877-0.815 1.752-1.262 2.627-1.34 0.876-0.069 1.763 0.213 2.66 0.848v0c2.621 1.854 2.545 4.741-0.226 8.658v0c-0.956 1.351-1.771 2.44-2.447 3.269v0l-0.011 0.016-4.023-3.065-9.693-6.639 2.999-4.289c0.937-1.324 1.954-2.149 3.052-2.475 1.094-0.32 2.19-0.093 3.287 0.684v0c0.767 0.543 1.3 1.188 1.6 1.934 0.297 0.737 0.356 1.537 0.175 2.399zM129.583 110.993c-0.681-0.482-1.306-0.636-1.874-0.463-0.574 0.17-1.184 0.711-1.83 1.625v0l-1.027 1.451 4.161 3.041 1.619-2.151c0.287-0.738 0.348-1.392 0.184-1.962-0.163-0.561-0.574-1.075-1.233-1.541zM136.315 119.478c0.746-1.054 1.121-2.009 1.127-2.864 0.002-0.85-0.381-1.547-1.149-2.09v0c-1.227-0.868-2.504-0.587-3.831 0.841v0l-1.756 2.517 1.788 1.289 2.667 1.801c0.437-0.526 0.822-1.024 1.154-1.494zM144.801 102.545l1.386-3.81 0.28-0.058 1.851 0.933-3.686 9.209-4.626-2.044-10.972-4.2 3.705-9.255 0.28-0.059 1.84 0.961-1.581 3.656-1.161 2.98 4.516 1.893 1.175-2.803 0.96-2.61 0.26-0.089 1.849 0.965-1.174 2.718-1.013 2.664 2.008 0.836 2.896 1.074z" fill="#77d4fc" data-fill-palette-color="primary"></path><path d="M92.634 8.914l0.269 1.382c-0.379 0.496-0.77 0.868-1.172 1.116-0.402 0.248-0.89 0.378-1.463 0.391v0c-0.468-0.044-1.294-0.242-2.478-0.592v0c-0.251 1.113-0.727 2.073-1.428 2.877-0.701 0.805-1.581 1.4-2.641 1.786-1.066 0.378-2.242 0.507-3.527 0.386v0c-1.977-0.186-3.468-0.878-4.473-2.077-1.004-1.205-1.414-2.773-1.232-4.704v0c0.112-1.193 0.426-2.227 0.94-3.103 0.508-0.876 1.161-1.53 1.96-1.96 0.798-0.43 1.662-0.601 2.592-0.514v0c0.877 0.083 1.542 0.358 1.997 0.827 0.455 0.468 0.651 1.025 0.59 1.671v0c-0.007 0.079-0.038 0.226-0.091 0.44v0c1.529-0.913 2.894-1.958 4.095-3.135 1.201-1.177 2.172-2.412 2.912-3.705v0l0.208 0.02c0.443 0.52 0.716 1.085 0.818 1.692v0c-0.647 1.156-1.703 2.37-3.166 3.642-1.469 1.271-3.151 2.426-5.043 3.465-1.893 1.039-3.773 1.836-5.641 2.391v0c0.164 0.946 0.574 1.706 1.231 2.28 0.657 0.58 1.549 0.924 2.676 1.03v0c1.43 0.135 2.657-0.145 3.679-0.841 1.023-0.695 1.635-1.691 1.838-2.988v0c-0.5-0.127-0.865-0.201-1.096-0.223v0c-0.725-0.068-1.379 0.316-1.964 1.151v0l-0.259-0.004-0.277-1.402c0.381-0.516 0.779-0.891 1.193-1.125 0.407-0.228 0.897-0.348 1.471-0.36v0c0.468 0.044 1.342 0.263 2.621 0.656v0c0.124 0.025 0.5 0.13 1.127 0.315 0.634 0.186 1.139 0.297 1.515 0.332v0c0.442 0.042 0.817-0.026 1.126-0.203 0.309-0.177 0.578-0.484 0.805-0.921v0zM79.761 5.497c-0.85-0.08-1.561 0.229-2.132 0.927-0.571 0.698-0.915 1.672-1.033 2.925v0l-0.013 0.138c1.155-0.33 2.296-0.768 3.424-1.313v0c0.333-0.221 0.58-0.471 0.739-0.749 0.166-0.277 0.25-0.542 0.254-0.793v0c-0.002-0.333-0.113-0.596-0.334-0.79-0.228-0.194-0.529-0.309-0.905-0.345zM93.033 142.191l0.58 1.442c-0.308 0.626-0.656 1.114-1.043 1.462-0.393 0.355-0.9 0.594-1.52 0.717v0c-0.521 0.048-1.462 0.004-2.823-0.131v0c-0.038 1.26-0.356 2.399-0.954 3.418-0.598 1.019-1.44 1.847-2.526 2.484-1.079 0.63-2.331 1.011-3.754 1.14v0c-2.189 0.2-3.952-0.251-5.289-1.351-1.338-1.108-2.104-2.729-2.299-4.865v0c-0.12-1.318 0.007-2.51 0.381-3.575 0.375-1.058 0.956-1.902 1.743-2.532 0.78-0.63 1.684-0.991 2.713-1.086v0c0.976-0.089 1.758 0.075 2.348 0.494 0.59 0.418 0.917 0.983 0.983 1.695v0c0.008 0.086 0.003 0.252-0.014 0.5v0c1.476-1.311 2.749-2.727 3.82-4.248 1.07-1.527 1.877-3.07 2.418-4.628v0l0.228-0.021c0.588 0.471 0.998 1.029 1.23 1.672v0c-0.464 1.392-1.364 2.93-2.7 4.614-1.336 1.678-2.928 3.276-4.777 4.794-1.849 1.518-3.739 2.771-5.669 3.759v0c0.377 0.996 0.98 1.742 1.81 2.238 0.836 0.489 1.88 0.676 3.132 0.561v0c1.576-0.144 2.851-0.696 3.828-1.656 0.969-0.966 1.43-2.175 1.383-3.626v0c-0.562-0.035-0.971-0.041-1.228-0.018v0c-0.804 0.073-1.439 0.62-1.904 1.64v0l-0.284 0.056-0.583-1.472c0.314-0.64 0.668-1.128 1.062-1.464 0.401-0.336 0.912-0.565 1.533-0.688v0c0.521-0.048 1.513 0.011 2.978 0.177v0c0.14 0.001 0.575 0.037 1.306 0.11 0.725 0.073 1.295 0.091 1.71 0.053v0c0.488-0.045 0.88-0.193 1.175-0.447 0.303-0.254 0.536-0.644 0.701-1.171v0zM78.325 141.092c-0.936 0.086-1.647 0.566-2.132 1.441-0.478 0.875-0.654 2.007-0.527 3.398v0l0.014 0.158c1.188-0.6 2.34-1.311 3.455-2.13v0c0.324-0.309 0.547-0.632 0.669-0.968 0.116-0.336 0.151-0.642 0.106-0.917v0c-0.066-0.36-0.243-0.623-0.531-0.79-0.288-0.166-0.639-0.231-1.054-0.192z" fill="#4b91f1" data-fill-palette-color="secondary"></path></svg></g></svg></g></svg></g><g></g></svg></g></svg></g><g><path d="M158.626 37.774A76.385 76.385 0 0 1 236.894 37.774L233.287 37.774A72.778 72.778 0 0 0 162.233 37.774L158.626 37.774M158.626 209.426A76.385 76.385 0 0 0 236.894 209.426L233.287 209.426A72.778 72.778 0 0 1 162.233 209.426L158.626 209.426" fill="#77d4fc" stroke="transparent" data-fill-palette-color="tertiary"></path></g></svg></g></svg><rect width="395.52" height="247.2" fill="none" stroke="none" visibility="hidden"></rect></g></svg></g></svg>